<svg xmlns="http://www.w3.org/2000/svg" width="25" height="20" viewBox="0 0 25 20"><g stroke="#FFF" stroke-miterlimit="10"><circle fill="none" stroke-width="1.5" cx="9.417" cy="17.02" r="1"/><circle fill="none" stroke-width="1.5" cx="15.417" cy="17.02" r="1"/><path fill="#FFF" d="M19.917 4.5H5.955l-1.038-1H1.5v1H4l1.169 1 1.748 8h11.125l1.875-9zm-2.944 8H8l-1.801-7h12.434l-1.66 7z"/></g><path fill="#F42535" d="M59.768 9.316v3.368s3.267-.004 4.596-.004c-.721 2.182-1.84 3.37-4.596 3.37-2.789 0-4.967-2.262-4.967-5.051 0-2.788 2.178-5.049 4.967-5.049 1.475 0 2.426.518 3.301 1.24.697-.7.64-.799 2.418-2.479A8.472 8.472 0 0 0 59.768 2.5a8.5 8.5 0 0 0-8.5 8.5 8.5 8.5 0 0 0 8.5 8.5c7.017 0 8.731-6.109 8.162-10.184h-8.162zm15.365.17V6.54h-2.104v2.946H70v2.104h3.029v3.029h2.104V11.59h2.946V9.486h-2.946zM131.688 2.043a8.025 8.025 0 0 1-2.318.636 4.046 4.046 0 0 0 1.775-2.234 8.123 8.123 0 0 1-2.564.98 4.041 4.041 0 0 0-6.883 3.684 11.469 11.469 0 0 1-8.325-4.22 4.01 4.01 0 0 0-.547 2.031c0 1.401.713 2.637 1.797 3.361a4.025 4.025 0 0 1-1.829-.504l-.001.051a4.043 4.043 0 0 0 3.24 3.96 4.057 4.057 0 0 1-1.824.07 4.046 4.046 0 0 0 3.774 2.806 8.106 8.106 0 0 1-5.982 1.672 11.428 11.428 0 0 0 6.19 1.814c7.431 0 11.492-6.155 11.492-11.494 0-.174-.004-.349-.012-.522a8.168 8.168 0 0 0 2.017-2.091zM196.018 1.474c0 .503-.018 2.709-.018 2.709h-2v3.411h2.018L196 17.6h4V7.594h3V4.141h-3V1.599c0-.345.629-.494 1.076-.494H203v-3.506h-2.736c-4.349.001-4.246 3.372-4.246 3.875zM-7-64.25h240v50H-7z"/></svg>