<svg xmlns="http://www.w3.org/2000/svg" width="120" height="53" viewBox="0 0 120 53"><g fill="#FFF"><path d="M81.167 11.151l1.293 2.909.645-3.07 3.071-.323-2.747-1.616.647-2.908-2.264 1.939-2.584-1.455 1.131 2.747-2.262 2.101zM98.456 28.117l2.101-2.424 2.747 1.293-1.455-2.585 1.939-2.424-2.908.647-1.616-2.586-.324 3.07-3.069.646 2.908 1.293zM57.738 7.597l2.585-1.939 2.424 1.939-.97-3.07 2.585-1.777h-3.069l-.97-2.909-.969 2.909h-3.07l2.424 1.777zM37.379 10.99l.646 3.07 1.293-2.909 3.07.324-2.424-2.101 1.293-2.747-2.586 1.455-2.423-1.939.646 2.908-2.585 1.616zM17.182 26.986l2.746-1.293 2.101 2.424-.323-3.07 2.747-1.293-2.909-.646-.323-3.07-1.616 2.586-3.07-.647 2.101 2.424zM119.784 49.931l-1.454-2.424H62.585c0-1.939 2.101-1.939 3.232-1.939h51.543l-1.454-2.424H67.109c-1.292 0-3.555.162-4.201.323.646-2.262 4.362-2.424 9.533-2.424h42.173l-1.455-2.423H73.411c-4.04 0-8.079.161-10.18 1.615 1.938-2.746 5.333-3.555 13.572-3.555h35.225l-1.454-2.424H76.966C64.848 34.257 60 37.328 60 47.022c0-9.694-4.847-12.766-16.966-12.766H9.426L7.972 36.68h35.062c8.24 0 11.634.809 13.573 3.555-2.101-1.454-5.979-1.615-10.18-1.615H6.841l-1.454 2.423h42.171c5.333 0 8.887.162 9.533 2.424-.646-.161-2.908-.323-4.201-.323H4.094L2.64 45.567h51.543c1.131 0 3.232 0 3.232 1.939H1.67L.216 49.93h57.36v1.454h5.009V49.93h57.199z"/></g></svg>